<svg width="57" height="33" viewBox="0 0 57 33" xmlns="http://www.w3.org/2000/svg">
	<path
		d="M53.1322 27.1665C52.5143 26.7933 52.1929 27.5272 51.13 27.5023C50.5615 27.4899 49.9436 27.2038 49.4121 26.9674C49.4121 26.8679 49.4121 26.7684 49.4245 26.6565C49.4615 25.4375 49.4986 24.2806 48.3121 23.6587C46.965 22.9497 43.6651 22.1536 41.7247 21.9297C40.6618 21.8053 38.0416 21.5317 35.9406 21.3202C38.9191 21.1834 45.2718 20.8848 45.8279 20.8848C46.5571 20.8848 46.8167 20.2878 46.8167 19.8897V19.8648C46.792 19.6534 46.3841 14.7525 46.3223 14.2549C46.2358 13.5459 45.6673 13.4837 45.1729 13.4215L45.1111 13.4091C44.6662 13.3593 39.8584 12.9115 38.7708 12.812L38.4001 7.3389L38.19 7.31402C37.0158 7.18963 35.4091 7.02793 34.5563 6.94085L34.2103 6.69208L27.6599 6.94085V7.31402L27.9442 8.12255L28.5251 8.15986C28.5251 8.15986 28.5003 8.76937 28.4633 9.70228C27.0543 7.115 24.5948 3.07236 24.496 2.91066C24.3847 2.72408 22.4814 -0.572225 18.2422 0.0870353C14.2872 0.69654 9.393 2.33847 8.81211 2.52505L6.37735 2.16433L5.51221 1.39312H3.44822L3.4235 1.62946C3.39878 1.85336 2.8797 7.00305 4.73358 9.50326C6.26612 11.5681 10.7772 16.2576 12.2851 17.8124H11.5064C11.3458 17.7751 11.1727 17.9119 11.0615 18.4095C10.8019 19.5912 10.5424 20.1883 9.91208 20.6609C9.57839 20.9097 8.09528 22.987 8.97278 25.6614C9.08402 25.9972 9.20761 26.3082 9.3312 26.5943C8.7874 26.3828 8.23123 26.2709 7.67507 26.4077C7.5144 26.445 7.36609 26.5196 7.25485 26.6316C7.16834 26.7187 7.10654 26.8306 7.06947 26.955C6.97059 27.2038 6.92116 27.4899 6.93352 27.7635C6.847 27.8506 6.61218 27.863 6.32791 27.8257C5.38861 27.2287 4.33808 26.8182 3.25047 26.6067C3.12688 26.5818 3.00329 26.557 2.8797 26.5818C2.76846 26.6067 2.66959 26.6689 2.57072 26.7435C1.8168 27.2287 1.03817 28.2362 0.222466 28.684C0.14831 28.7213 0.0741552 28.7586 0 28.7835V32.4032H56.2097V28.3482C56.222 28.3482 53.9603 27.6765 53.1322 27.1665ZM37.1889 14.9764C37.7821 14.4415 37.745 13.0732 37.745 12.501C37.745 11.991 37.6832 8.54547 37.6709 7.77426C37.7697 7.7867 37.8563 7.7867 37.9181 7.79914L38.2888 13.2722L38.4989 13.2971C38.5607 13.2971 44.5549 13.8693 45.0493 13.9191H45.1111C45.6673 13.9813 45.7785 14.0186 45.8279 14.3171C45.8897 14.7898 46.2976 19.6161 46.3223 19.8897C46.3223 19.9892 46.2852 20.3748 45.8279 20.3748C45.1358 20.3748 35.9653 20.8102 34.5563 20.8724C34.5316 20.0763 34.5193 18.5214 34.5193 16.7302C35.3226 16.4815 36.6574 15.4739 37.1889 14.9764ZM29.0689 10.9586C29.0689 10.9337 29.0689 10.9213 29.0689 10.8964C29.1059 10.0008 29.1554 9.20473 29.2048 8.60766L33.1103 8.52059C33.1103 8.52059 33.0238 10.6103 32.962 12.812L28.9947 12.9115C29.0194 12.2523 29.0441 11.593 29.0689 10.9586ZM28.9947 13.3593L32.962 13.2474C32.9126 15.0012 32.8755 16.7551 32.9126 17.5139L28.9205 17.601C28.9205 17.6134 28.9329 15.5859 28.9947 13.3593ZM8.07056 10.0133C6.00657 8.28425 5.69759 7.06524 5.17851 4.21674C5.17851 4.21674 4.95604 2.76139 4.86953 1.90311H5.31446L6.15489 2.64944L8.84919 3.04749L8.91099 3.02261C8.96043 3.01017 14.1513 1.21897 18.304 0.58459C22.296 -0.0249146 23.9892 3.03505 24.051 3.15944L24.0634 3.17188C24.1005 3.22163 27.1285 8.20962 28.4138 10.685C28.3149 13.1976 28.1914 16.9168 28.2284 18.6334L28.1914 19.9146C28.1914 19.9146 25.2622 11.7796 23.6432 8.3962C22.0241 5.02527 16.9321 5.34868 16.9321 5.34868L9.52895 5.83379C9.52895 5.83379 9.68962 5.83379 9.97388 5.83379L16.7344 14.8147L10.9255 5.84623C12.3592 5.87111 14.7075 5.94574 17.0433 6.15721C17.649 6.20696 18.2298 6.4433 18.7984 6.79159L19.3545 8.54547C19.1444 8.74449 19.1197 9.08034 19.1568 9.27936C19.1691 9.40375 19.9354 11.4562 20.7264 13.5583L19.8736 15.0261V16.0212H18.0568V16.1332C18.2051 16.1829 18.3534 16.3695 18.4029 16.7676C18.4276 16.9541 18.477 17.3398 18.5388 17.8124H17.3029C15.4737 16.2576 9.80085 11.4562 8.07056 10.0133ZM24.0634 13.5335H22.2095C21.4803 11.4064 20.7264 9.17985 20.6646 8.95595C20.5657 8.63254 20.3556 8.42108 20.059 8.37132L19.6882 7.43841C22.1971 9.55302 24.0634 13.5335 24.0634 13.5335ZM48.9301 26.644C48.9301 26.6813 48.9301 26.7187 48.9301 26.756C48.6829 26.6565 48.4605 26.6067 48.2751 26.6316C47.8425 26.6938 47.5953 27.0794 46.7549 27.2535C46.9526 26.9052 47.0268 26.3455 46.965 25.5618C46.829 23.7333 44.419 23.4099 44.419 23.4099L41.7 22.9621C41.8236 22.9994 43.7269 23.5965 43.7022 25.5867C43.6898 26.2833 43.5909 26.7809 43.4797 27.1291C42.528 26.9301 42.2438 26.6938 41.3415 26.644C41.4651 25.9599 41.4775 25.226 41.2921 24.6414C40.9461 23.6089 40.6618 23.298 35.199 22.4024C30.3789 21.6187 23.0128 21.9919 21.3196 22.0914C21.7398 23.808 22.6544 27.5769 22.7409 27.8879C22.8398 28.2362 24.051 28.4725 24.3847 28.5347C24.4342 28.5472 24.4712 28.5472 24.4712 28.5472C23.8162 28.6342 23.223 28.684 22.6915 28.7089C22.5308 28.7213 22.3702 28.7213 22.2219 28.7213C22.1848 28.7213 22.1601 28.7213 22.123 28.7213C21.4927 28.7213 20.9489 28.6716 20.4792 28.5596C19.0085 28.2113 18.2793 27.2784 17.7602 25.6614C17.1917 23.895 17.6366 22.3899 18.0939 21.5068C18.3411 21.0465 18.5882 20.748 18.6995 20.6609C18.7984 20.5987 18.8725 20.5241 18.959 20.4495C19.1691 20.2504 19.3298 20.0265 19.4534 19.7405C19.6141 19.3922 19.7377 18.9692 19.8612 18.4095C19.9478 17.999 20.0837 17.8373 20.2197 17.8124C20.2444 17.8124 20.2691 17.8124 20.2938 17.8124C20.4051 17.8249 20.5286 17.9244 20.6275 18.0363C20.7264 18.1483 20.8129 18.2602 20.8747 18.31C21.0601 18.4841 21.1095 18.8697 21.1342 19.3424C21.1342 19.4419 21.1466 19.5787 21.1466 19.7405C21.1466 20.0514 21.1466 20.4246 21.1466 20.7231C21.1466 21.0341 21.1466 21.258 21.1466 21.258C21.1466 21.258 21.1713 21.3451 21.2084 21.5068H32.9373C33.3081 21.5441 39.8584 22.2158 41.7 22.4272C43.5538 22.6387 46.829 23.4348 48.1144 24.1065C48.9919 24.5792 48.9672 25.4872 48.9301 26.644Z"
		fill="#191919" />
</svg>