<svg width="164" height="33" viewBox="0 0 164 33" fill="none" xmlns="http://www.w3.org/2000/svg">
	<path
		d="M66.6645 13.8912H64.8065L68.1893 4.26855H70.3382L73.7258 13.8912H71.8678L69.3013 6.24195H69.2262L66.6645 13.8912ZM66.7255 10.1183H71.7927V11.5184H66.7255V10.1183Z"
		fill="#191919" />
	<path
		d="M74.7933 13.8912V4.26855H78.3967C79.1348 4.26855 79.7542 4.40638 80.2547 4.68203C80.7583 4.95768 81.1383 5.3367 81.3948 5.81908C81.6544 6.29834 81.7842 6.84337 81.7842 7.45419C81.7842 8.07126 81.6544 8.61943 81.3948 9.09869C81.1352 9.57794 80.752 9.95539 80.2453 10.231C79.7385 10.5036 79.1145 10.6398 78.3732 10.6398H75.985V9.20675H78.1386C78.5703 9.20675 78.9237 9.13158 79.199 8.98122C79.4742 8.83087 79.6775 8.62413 79.8089 8.36101C79.9434 8.09789 80.0107 7.79561 80.0107 7.45419C80.0107 7.11276 79.9434 6.81205 79.8089 6.55206C79.6775 6.29207 79.4727 6.09003 79.1943 5.94594C78.919 5.79872 78.564 5.72511 78.1292 5.72511H76.534V13.8912H74.7933Z"
		fill="#191919" />
	<path d="M83.098 13.8912V4.26855H89.3476V5.72981H84.8387V8.34222H89.0239V9.80347H84.8387V12.43H89.3852V13.8912H83.098Z" fill="#191919" />
	<path d="M90.9254 13.8912V4.26855H92.6661V8.34222H97.1187V4.26855H98.8641V13.8912H97.1187V9.80347H92.6661V13.8912H90.9254Z" fill="#191919" />
	<path
		d="M99.9351 16.2123V12.4676H100.578C100.794 12.2953 100.995 12.0525 101.183 11.7393C101.371 11.426 101.53 10.9969 101.662 10.4519C101.793 9.90684 101.884 9.20205 101.934 8.33752L102.187 4.26855H108.329V12.4676H109.399V16.2029H107.728V13.8912H101.605V16.2123H99.9351ZM102.605 12.4676H106.659V5.72981H103.754L103.604 8.33752C103.563 8.99218 103.498 9.57794 103.407 10.0948C103.316 10.6116 103.202 11.0674 103.065 11.4621C102.927 11.8536 102.774 12.1888 102.605 12.4676Z"
		fill="#191919" />
	<path
		d="M111.853 13.8912H109.995L113.377 4.26855H115.526L118.914 13.8912H117.056L114.489 6.24195H114.414L111.853 13.8912ZM111.914 10.1183H116.981V11.5184H111.914V10.1183Z"
		fill="#191919" />
	<path
		d="M73.6554 23.3927H71.9006C71.8506 23.1045 71.7583 22.8492 71.6238 22.6268C71.4893 22.4013 71.322 22.2102 71.1218 22.0536C70.9216 21.897 70.6933 21.7795 70.4368 21.7012C70.1834 21.6197 69.9097 21.579 69.6157 21.579C69.0933 21.579 68.6304 21.7106 68.2269 21.9737C67.8234 22.2337 67.5074 22.6158 67.2791 23.1202C67.0508 23.6213 66.9366 24.2337 66.9366 24.9573C66.9366 25.6934 67.0508 26.3136 67.2791 26.8179C67.5106 27.3191 67.8265 27.6981 68.2269 27.955C68.6304 28.2087 69.0917 28.3356 69.611 28.3356C69.8988 28.3356 70.1678 28.298 70.418 28.2228C70.6714 28.1445 70.8981 28.0302 71.0983 27.8798C71.3016 27.7295 71.4721 27.5446 71.6097 27.3254C71.7505 27.1061 71.8475 26.8555 71.9006 26.5736L73.6554 26.583C73.5897 27.0403 73.4474 27.4695 73.2285 27.8704C73.0126 28.2714 72.7295 28.6253 72.3792 28.9323C72.0289 29.2361 71.6191 29.4742 71.1499 29.6465C70.6807 29.8156 70.1599 29.9002 69.5875 29.9002C68.743 29.9002 67.9891 29.7044 67.326 29.3129C66.6629 28.9213 66.1405 28.3559 65.7589 27.6167C65.3773 26.8774 65.1865 25.991 65.1865 24.9573C65.1865 23.9205 65.3789 23.034 65.7636 22.2979C66.1483 21.5587 66.6723 20.9933 67.3354 20.6017C67.9985 20.2102 68.7492 20.0144 69.5875 20.0144C70.1224 20.0144 70.6197 20.0896 71.0796 20.2399C71.5394 20.3903 71.9491 20.6111 72.3088 20.9024C72.6686 21.1906 72.9641 21.5446 73.1956 21.9643C73.4302 22.3809 73.5835 22.857 73.6554 23.3927Z"
		fill="#191919" />
	<path d="M82.8915 20.146V29.7686H81.1649V21.5931H76.9609V29.7686H75.2343V20.146H82.8915Z" fill="#191919" />
	<path d="M84.7754 29.7686V20.146H91.025V21.6072H86.5161V24.2196H90.7013V25.6809H86.5161V28.3074H91.0625V29.7686H84.7754Z" fill="#191919" />
	<path
		d="M101.494 28.3121L101.367 32.0427H99.6781V29.7686H99.0025V28.3121H101.494ZM92.6027 29.7686V20.146H94.273V28.3215H98.5896V20.146H100.274V29.7686H92.6027Z"
		fill="#191919" />
	<path d="M102.292 21.6072V20.146H109.958V21.6072H106.988V29.7686H105.262V21.6072H102.292Z" fill="#191919" />
	<path d="M111.238 29.7686V20.146H117.488V21.6072H112.979V24.2196H117.164V25.6809H112.979V28.3074H117.525V29.7686H111.238Z" fill="#191919" />
	<path
		d="M120.52 20.146L122.636 23.6699H122.711L124.836 20.146H126.821L123.86 24.9573L126.868 29.7686H124.85L122.711 26.2682H122.636L120.496 29.7686H118.488L121.524 24.9573L118.526 20.146H120.52Z"
		fill="#191919" />
	<path d="M127.989 29.7686V20.146H129.73V24.2196H134.183V20.146H135.928V29.7686H134.183V25.6809H129.73V29.7686H127.989Z" fill="#191919" />
	<path d="M137.623 20.146H139.35V26.7052H139.439L143.957 20.146H145.52V29.7686H143.779V23.2141H143.699L139.167 29.7686H137.623V20.146Z"
		fill="#191919" />
	<path
		d="M152.975 29.7686L149.813 25.5634H148.959V29.7686H147.218V20.146H148.959V24.1022H149.395L152.811 20.146H154.955L151.159 24.5344L155.119 29.7686H152.975Z"
		fill="#191919" />
	<path d="M156.104 20.146H157.83V26.7052H157.919L162.438 20.146H164V29.7686H162.259V23.2141H162.18L157.647 29.7686H156.104V20.146Z" fill="#191919" />
	<path
		d="M32.9002 17.5208L28.9082 17.608C28.9082 17.608 28.9206 15.5796 28.9824 13.3522L32.9497 13.2402C32.9002 15.0072 32.8632 16.7618 32.9002 17.5208Z"
		fill="#191919" />
	<path
		d="M33.1103 8.52393C33.1103 8.52393 33.0238 10.6145 32.962 12.817L28.9947 12.9165C29.0194 12.257 29.0318 11.5851 29.0565 10.9629C29.0565 10.938 29.0565 10.9255 29.0565 10.9007C29.0936 10.0047 29.143 9.20833 29.1924 8.61103L33.1103 8.52393Z"
		fill="#191919" />
	<path d="M29.0813 10.938L29.0565 10.9505C29.0565 10.9256 29.0565 10.9131 29.0565 10.8882C29.0689 10.9131 29.0813 10.9256 29.0813 10.938Z"
		fill="#191919" />
	<path
		d="M32.9002 17.5208L28.9082 17.608C28.9082 17.608 28.9206 15.5796 28.9824 13.3522L32.9497 13.2402C32.9002 15.0072 32.8632 16.7618 32.9002 17.5208Z"
		fill="white" />
	<path
		d="M33.1103 8.52393C33.1103 8.52393 33.0238 10.6145 32.962 12.817L28.9947 12.9165C29.0194 12.257 29.0318 11.5851 29.0565 10.9629C29.0565 10.938 29.0565 10.9255 29.0565 10.9007C29.0936 10.0047 29.143 9.20833 29.1924 8.61103L33.1103 8.52393Z"
		fill="white" />
	<path
		d="M53.1322 27.1665C52.5143 26.7933 52.1929 27.5272 51.13 27.5023C50.5615 27.4899 49.9436 27.2038 49.4121 26.9674C49.4121 26.8679 49.4121 26.7684 49.4245 26.6565C49.4615 25.4375 49.4986 24.2806 48.3121 23.6587C46.965 22.9497 43.6651 22.1536 41.7247 21.9297C40.6618 21.8053 38.0416 21.5317 35.9406 21.3202C38.9191 21.1834 45.2718 20.8848 45.8279 20.8848C46.5571 20.8848 46.8167 20.2878 46.8167 19.8897V19.8648C46.792 19.6534 46.3841 14.7525 46.3223 14.2549C46.2358 13.5459 45.6673 13.4837 45.1729 13.4215L45.1111 13.4091C44.6662 13.3593 39.8584 12.9115 38.7708 12.812L38.4001 7.3389L38.19 7.31402C37.0158 7.18963 35.4091 7.02793 34.5563 6.94085L34.2103 6.69208L27.6599 6.94085V7.31402L27.9442 8.12255L28.5251 8.15986C28.5251 8.15986 28.5003 8.76937 28.4633 9.70228C27.0543 7.115 24.5948 3.07236 24.496 2.91066C24.3847 2.72408 22.4814 -0.572225 18.2422 0.0870353C14.2872 0.69654 9.393 2.33847 8.81211 2.52505L6.37735 2.16433L5.51221 1.39312H3.44822L3.4235 1.62946C3.39878 1.85336 2.8797 7.00305 4.73358 9.50326C6.26612 11.5681 10.7772 16.2576 12.2851 17.8124H11.5064C11.3458 17.7751 11.1727 17.9119 11.0615 18.4095C10.8019 19.5912 10.5424 20.1883 9.91208 20.6609C9.57839 20.9097 8.09528 22.987 8.97278 25.6614C9.08402 25.9972 9.20761 26.3082 9.3312 26.5943C8.7874 26.3828 8.23123 26.2709 7.67507 26.4077C7.5144 26.445 7.36609 26.5196 7.25485 26.6316C7.16834 26.7187 7.10654 26.8306 7.06947 26.955C6.97059 27.2038 6.92116 27.4899 6.93352 27.7635C6.847 27.8506 6.61218 27.863 6.32791 27.8257C5.38861 27.2287 4.33808 26.8182 3.25047 26.6067C3.12688 26.5818 3.00329 26.557 2.8797 26.5818C2.76846 26.6067 2.66959 26.6689 2.57072 26.7435C1.8168 27.2287 1.03817 28.2362 0.222466 28.684C0.148311 28.7213 0.0741553 28.7586 0 28.7835V32.4032H56.2097V28.3482C56.222 28.3482 53.9603 27.6765 53.1322 27.1665ZM37.1889 14.9764C37.7821 14.4415 37.745 13.0732 37.745 12.501C37.745 11.991 37.6832 8.54547 37.6709 7.77426C37.7697 7.7867 37.8563 7.7867 37.9181 7.79914L38.2888 13.2722L38.4989 13.2971C38.5607 13.2971 44.5549 13.8693 45.0493 13.9191H45.1111C45.6673 13.9813 45.7785 14.0186 45.8279 14.3171C45.8897 14.7898 46.2976 19.6161 46.3223 19.8897C46.3223 19.9892 46.2852 20.3748 45.8279 20.3748C45.1358 20.3748 35.9653 20.8102 34.5563 20.8724C34.5316 20.0763 34.5193 18.5214 34.5193 16.7302C35.3226 16.4815 36.6574 15.4739 37.1889 14.9764ZM29.0689 10.9586C29.0689 10.9337 29.0689 10.9213 29.0689 10.8964C29.1059 10.0008 29.1554 9.20473 29.2048 8.60766L33.1103 8.52059C33.1103 8.52059 33.0238 10.6103 32.962 12.812L28.9947 12.9115C29.0194 12.2523 29.0441 11.593 29.0689 10.9586ZM28.9947 13.3593L32.962 13.2474C32.9126 15.0012 32.8755 16.7551 32.9126 17.5139L28.9205 17.601C28.9205 17.6134 28.9329 15.5859 28.9947 13.3593ZM8.07056 10.0133C6.00657 8.28425 5.69759 7.06524 5.17851 4.21674C5.17851 4.21674 4.95604 2.76139 4.86953 1.90311H5.31446L6.15489 2.64944L8.84919 3.04749L8.91099 3.02261C8.96043 3.01017 14.1513 1.21897 18.304 0.58459C22.296 -0.0249146 23.9892 3.03505 24.051 3.15944L24.0634 3.17188C24.1005 3.22163 27.1285 8.20962 28.4138 10.685C28.3149 13.1976 28.1914 16.9168 28.2284 18.6334L28.1914 19.9146C28.1914 19.9146 25.2622 11.7796 23.6432 8.3962C22.0241 5.02527 16.9321 5.34868 16.9321 5.34868L9.52895 5.83379C9.52895 5.83379 9.68962 5.83379 9.97388 5.83379L16.7344 14.8147L10.9255 5.84623C12.3592 5.87111 14.7075 5.94574 17.0433 6.15721C17.6489 6.20696 18.2298 6.4433 18.7984 6.79159L19.3545 8.54547C19.1444 8.74449 19.1197 9.08034 19.1568 9.27936C19.1691 9.40375 19.9354 11.4562 20.7264 13.5583L19.8736 15.0261V16.0212H18.0568V16.1332C18.2051 16.1829 18.3534 16.3695 18.4029 16.7676C18.4276 16.9541 18.477 17.3398 18.5388 17.8124H17.3029C15.4737 16.2576 9.80085 11.4562 8.07056 10.0133ZM24.0634 13.5335H22.2095C21.4803 11.4064 20.7264 9.17985 20.6646 8.95595C20.5657 8.63254 20.3556 8.42108 20.059 8.37132L19.6882 7.43841C22.1971 9.55302 24.0634 13.5335 24.0634 13.5335ZM48.9301 26.644C48.9301 26.6813 48.9301 26.7187 48.9301 26.756C48.6829 26.6565 48.4605 26.6067 48.2751 26.6316C47.8425 26.6938 47.5953 27.0794 46.7549 27.2535C46.9526 26.9052 47.0268 26.3455 46.965 25.5618C46.829 23.7333 44.419 23.4099 44.419 23.4099L41.7 22.9621C41.8236 22.9994 43.7269 23.5965 43.7022 25.5867C43.6898 26.2833 43.5909 26.7809 43.4797 27.1291C42.528 26.9301 42.2438 26.6938 41.3416 26.644C41.4651 25.9599 41.4775 25.226 41.2921 24.6414C40.9461 23.6089 40.6618 23.298 35.199 22.4024C30.3789 21.6187 23.0128 21.9919 21.3196 22.0914C21.7398 23.808 22.6544 27.5769 22.7409 27.8879C22.8398 28.2362 24.051 28.4725 24.3847 28.5347C24.4342 28.5472 24.4712 28.5472 24.4712 28.5472C23.8162 28.6342 23.223 28.684 22.6915 28.7089C22.5308 28.7213 22.3702 28.7213 22.2219 28.7213C22.1848 28.7213 22.1601 28.7213 22.123 28.7213C21.4927 28.7213 20.9489 28.6716 20.4792 28.5596C19.0085 28.2113 18.2793 27.2784 17.7602 25.6614C17.1917 23.895 17.6366 22.3899 18.0939 21.5068C18.3411 21.0465 18.5882 20.748 18.6995 20.6609C18.7984 20.5987 18.8725 20.5241 18.959 20.4495C19.1691 20.2504 19.3298 20.0265 19.4534 19.7405C19.6141 19.3922 19.7377 18.9692 19.8612 18.4095C19.9478 17.999 20.0837 17.8373 20.2197 17.8124C20.2444 17.8124 20.2691 17.8124 20.2938 17.8124C20.4051 17.8249 20.5286 17.9244 20.6275 18.0363C20.7264 18.1483 20.8129 18.2602 20.8747 18.31C21.0601 18.4841 21.1095 18.8697 21.1342 19.3424C21.1342 19.4419 21.1466 19.5787 21.1466 19.7405C21.1466 20.0514 21.1466 20.4246 21.1466 20.7231C21.1466 21.0341 21.1466 21.258 21.1466 21.258C21.1466 21.258 21.1713 21.3451 21.2084 21.5068H32.9373C33.3081 21.5441 39.8584 22.2158 41.7 22.4272C43.5538 22.6387 46.829 23.4348 48.1144 24.1065C48.9919 24.5792 48.9672 25.4872 48.9301 26.644Z"
		fill="#191919" />
	<path d="M0.222515 28.6699C0.148344 28.7073 0.0741718 28.7446 0 28.7695V28.6699H0.222515Z"
		fill="#191919" />
</svg>