<svg xmlns="http://www.w3.org/2000/svg">
	<symbol id="i-tg" viewBox="0 0 24 21">
		<path
			d="M21.0732 0.168293C21.3615 0.0469487 21.677 0.00509802 21.987 0.047096C22.297 0.089094 22.59 0.213406 22.8356 0.407092C23.0813 0.600778 23.2705 0.856758 23.3836 1.14839C23.4967 1.44002 23.5296 1.75664 23.4788 2.06529L20.8328 18.1151C20.5762 19.6633 18.8775 20.5511 17.4577 19.78C16.27 19.1348 14.506 18.1408 12.9193 17.1036C12.126 16.5845 9.69584 14.922 9.9945 13.739C10.2512 12.7275 14.3345 8.92646 16.6678 6.66663C17.5837 5.77879 17.166 5.26663 16.0845 6.08329C13.3977 8.11096 9.08684 11.1945 7.66117 12.0625C6.4035 12.8278 5.74784 12.9585 4.96384 12.8278C3.5335 12.5898 2.207 12.2211 1.12434 11.772C-0.338664 11.1653 -0.267497 9.15396 1.12317 8.56829L21.0732 0.168293Z" />
	</symbol>
	<symbol id="i-wa" viewBox="0 0 28 28">
		<path
			d="M23.4001 4.54658C22.1777 3.31182 20.7216 2.33281 19.1169 1.66665C17.5122 1.0005 15.7909 0.66053 14.0534 0.666583C6.7734 0.666583 0.840065 6.59992 0.840065 13.8799C0.840065 16.2132 1.4534 18.4799 2.60007 20.4799L0.733398 27.3333L7.7334 25.4933C9.66673 26.5466 11.8401 27.1066 14.0534 27.1066C21.3334 27.1066 27.2667 21.1733 27.2667 13.8932C27.2667 10.3599 25.8934 7.03992 23.4001 4.54658ZM14.0534 24.8666C12.0801 24.8666 10.1467 24.3333 8.4534 23.3333L8.0534 23.0933L3.8934 24.1866L5.00006 20.1333L4.7334 19.7199C3.63706 17.9692 3.05492 15.9456 3.0534 13.8799C3.0534 7.82658 7.98673 2.89325 14.0401 2.89325C16.9734 2.89325 19.7334 4.03992 21.8001 6.11992C22.8234 7.13854 23.6343 8.35013 24.1859 9.68448C24.7375 11.0188 25.0188 12.4494 25.0134 13.8932C25.0401 19.9466 20.1067 24.8666 14.0534 24.8666ZM20.0801 16.6532C19.7467 16.4932 18.1201 15.6933 17.8267 15.5732C17.5201 15.4666 17.3067 15.4132 17.0801 15.7332C16.8534 16.0666 16.2267 16.8132 16.0401 17.0266C15.8534 17.2533 15.6534 17.2799 15.3201 17.1066C14.9867 16.9466 13.9201 16.5866 12.6667 15.4666C11.6801 14.5866 11.0267 13.5066 10.8267 13.1733C10.6401 12.8399 10.8001 12.6666 10.9734 12.4932C11.1201 12.3466 11.3067 12.1066 11.4667 11.9199C11.6267 11.7332 11.6934 11.5866 11.8001 11.3732C11.9067 11.1466 11.8534 10.9599 11.7734 10.7999C11.6934 10.6399 11.0267 9.01325 10.7601 8.34658C10.4934 7.70658 10.2134 7.78658 10.0134 7.77325H9.3734C9.14673 7.77325 8.80006 7.85325 8.4934 8.18658C8.20006 8.51992 7.34673 9.31992 7.34673 10.9466C7.34673 12.5733 8.5334 14.1466 8.6934 14.3599C8.8534 14.5866 11.0267 17.9199 14.3334 19.3466C15.1201 19.6933 15.7334 19.8933 16.2134 20.0399C17.0001 20.2933 17.7201 20.2532 18.2934 20.1732C18.9334 20.0799 20.2534 19.3732 20.5201 18.5999C20.8001 17.8266 20.8001 17.1733 20.7067 17.0266C20.6134 16.8799 20.4134 16.8132 20.0801 16.6532Z" />
	</symbol>
	<symbol id="i-tel" viewBox="0 0 27 27">
		<path
			d="M7.4475 12.1388C9.0675 15.3225 11.6775 17.9212 14.8612 19.5525L17.3363 17.0775C17.64 16.7738 18.09 16.6725 18.4838 16.8075C19.7437 17.2237 21.105 17.4488 22.5 17.4488C23.1187 17.4488 23.625 17.955 23.625 18.5738V22.5C23.625 23.1187 23.1187 23.625 22.5 23.625C11.9362 23.625 3.375 15.0638 3.375 4.5C3.375 3.88125 3.88125 3.375 4.5 3.375H8.4375C9.05625 3.375 9.5625 3.88125 9.5625 4.5C9.5625 5.90625 9.7875 7.25625 10.2037 8.51625C10.3275 8.91 10.2375 9.34875 9.9225 9.66375L7.4475 12.1388Z" />
	</symbol>
	<symbol id="i-success" viewBox="0 0 168 168">
		<path fill-rule="evenodd"
			d="M84 166C129.287 166 166 129.287 166 84C166 38.7127 129.287 2 84 2C38.7127 2 2 38.7127 2 84C2 129.287 38.7127 166 84 166ZM84 168C130.392 168 168 130.392 168 84C168 37.6081 130.392 0 84 0C37.6081 0 0 37.6081 0 84C0 130.392 37.6081 168 84 168Z" />
		<path fill-rule="evenodd"
			d="M79.1734 102.106L116.813 64.4664L118.228 65.8806L79.1734 104.935L59.2927 85.0542L60.7069 83.64L79.1734 102.106Z" />
	</symbol>
	<symbol id="i-error" viewBox="0 0 168 168">
		<path fill-rule="evenodd"
			d="M84 166C129.287 166 166 129.287 166 84C166 38.7127 129.287 2 84 2C38.7127 2 2 38.7127 2 84C2 129.287 38.7127 166 84 166ZM84 168C130.392 168 168 130.392 168 84C168 37.6081 130.392 0 84 0C37.6081 0 0 37.6081 0 84C0 130.392 37.6081 168 84 168Z" />
		<path
			d="M85.3267 57.6364L85.1477 94.7358H82.0796L81.9006 57.6364H85.3267ZM83.6137 110.332C82.8466 110.332 82.1904 110.068 81.6449 109.54C81.1165 108.994 80.8523 108.338 80.8523 107.571C80.8523 106.821 81.125 106.173 81.6705 105.628C82.2159 105.082 82.8637 104.81 83.6137 104.81C84.3637 104.81 85.0114 105.082 85.5568 105.628C86.1023 106.173 86.375 106.821 86.375 107.571C86.375 108.082 86.2472 108.551 85.9915 108.977C85.7529 109.386 85.4205 109.719 84.9943 109.974C84.5852 110.213 84.125 110.332 83.6137 110.332Z" />
	</symbol>
	<symbol id="i-right" viewBox="0 0 103 29">
		<path
			d="M102.136 14.625L88.1997 28.3713L86.093 26.2354L96.3432 16.125L0.50003 16.1248L0.50003 13.1248L96.3432 13.125L86.093 3.01456L88.1997 0.878723L102.136 14.625Z" />
	</symbol>
	<symbol id="i-error-mini" viewBox="0 0 13 14">
		<path fill-rule="evenodd" clip-rule="evenodd"
			d="M6.5 12.7C9.64802 12.7 12.2 10.148 12.2 7C12.2 3.85198 9.64802 1.3 6.5 1.3C3.35198 1.3 0.8 3.85198 0.8 7C0.8 10.148 3.35198 12.7 6.5 12.7ZM6.5 13.5C10.0899 13.5 13 10.5899 13 7C13 3.41015 10.0899 0.5 6.5 0.5C2.91015 0.5 0 3.41015 0 7C0 10.5899 2.91015 13.5 6.5 13.5Z" />
	</symbol>
</svg>