<svg width="230" height="20" viewBox="0 0 230 20" fill="none" xmlns="http://www.w3.org/2000/svg">
	<path
		d="M9.87536 8H8.6424C8.56948 7.64536 8.44188 7.33381 8.25959 7.06534C8.08061 6.79688 7.86186 6.5715 7.60334 6.3892C7.34813 6.2036 7.06475 6.06439 6.7532 5.97159C6.44164 5.87879 6.11683 5.83239 5.77876 5.83239C5.16229 5.83239 4.60381 5.98816 4.10334 6.29972C3.60618 6.61127 3.21011 7.07031 2.91513 7.67685C2.62346 8.28338 2.47763 9.02746 2.47763 9.90909C2.47763 10.7907 2.62346 11.5348 2.91513 12.1413C3.21011 12.7479 3.60618 13.2069 4.10334 13.5185C4.60381 13.83 5.16229 13.9858 5.77876 13.9858C6.11683 13.9858 6.44164 13.9394 6.7532 13.8466C7.06475 13.7538 7.34813 13.6162 7.60334 13.4339C7.86186 13.2483 8.08061 13.0213 8.25959 12.7528C8.44188 12.4811 8.56948 12.1695 8.6424 11.8182H9.87536C9.78255 12.3385 9.61352 12.8042 9.36825 13.2152C9.12299 13.6262 8.81806 13.9759 8.45348 14.2642C8.0889 14.5492 7.67957 14.7663 7.2255 14.9155C6.77474 15.0646 6.2925 15.1392 5.77876 15.1392C4.91039 15.1392 4.13814 14.9271 3.462 14.5028C2.78587 14.0786 2.25391 13.4754 1.86612 12.6932C1.47834 11.911 1.28445 10.983 1.28445 9.90909C1.28445 8.83523 1.47834 7.9072 1.86612 7.125C2.25391 6.3428 2.78587 5.73958 3.462 5.31534C4.13814 4.8911 4.91039 4.67898 5.77876 4.67898C6.2925 4.67898 6.77474 4.75355 7.2255 4.9027C7.67957 5.05185 8.0889 5.2706 8.45348 5.55895C8.81806 5.84399 9.12299 6.192 9.36825 6.60298C9.61352 7.01065 9.78255 7.47633 9.87536 8ZM14.8109 15.1591C14.1215 15.1591 13.5166 14.995 12.9963 14.6669C12.4792 14.3388 12.0749 13.8797 11.7832 13.2898C11.4949 12.6998 11.3507 12.0104 11.3507 11.2216C11.3507 10.4261 11.4949 9.73177 11.7832 9.13849C12.0749 8.54522 12.4792 8.08452 12.9963 7.75639C13.5166 7.42827 14.1215 7.2642 14.8109 7.2642C15.5003 7.2642 16.1035 7.42827 16.6206 7.75639C17.1409 8.08452 17.5453 8.54522 17.8336 9.13849C18.1253 9.73177 18.2711 10.4261 18.2711 11.2216C18.2711 12.0104 18.1253 12.6998 17.8336 13.2898C17.5453 13.8797 17.1409 14.3388 16.6206 14.6669C16.1035 14.995 15.5003 15.1591 14.8109 15.1591ZM14.8109 14.1051C15.3346 14.1051 15.7654 13.9709 16.1035 13.7024C16.4416 13.4339 16.6918 13.081 16.8542 12.6435C17.0166 12.206 17.0978 11.732 17.0978 11.2216C17.0978 10.7112 17.0166 10.2356 16.8542 9.79474C16.6918 9.35393 16.4416 8.99763 16.1035 8.72585C15.7654 8.45407 15.3346 8.31818 14.8109 8.31818C14.2872 8.31818 13.8564 8.45407 13.5183 8.72585C13.1802 8.99763 12.93 9.35393 12.7676 9.79474C12.6052 10.2356 12.524 10.7112 12.524 11.2216C12.524 11.732 12.6052 12.206 12.7676 12.6435C12.93 13.081 13.1802 13.4339 13.5183 13.7024C13.8564 13.9709 14.2872 14.1051 14.8109 14.1051ZM19.5849 13.0511H20.8377C20.8642 13.3958 21.02 13.6577 21.305 13.8366C21.5934 14.0156 21.9679 14.1051 22.4286 14.1051C22.8993 14.1051 23.302 14.009 23.6367 13.8168C23.9715 13.6212 24.1388 13.3063 24.1388 12.8722C24.1388 12.617 24.0759 12.3949 23.9499 12.206C23.824 12.0137 23.6467 11.8646 23.418 11.7585C23.1893 11.6525 22.9192 11.5994 22.6076 11.5994H21.2951V10.5455H22.6076C23.0749 10.5455 23.4196 10.4394 23.6417 10.2273C23.8671 10.0152 23.9798 9.75 23.9798 9.43182C23.9798 9.09044 23.8588 8.817 23.6168 8.61151C23.3749 8.4027 23.0318 8.2983 22.5877 8.2983C22.1403 8.2983 21.7674 8.39938 21.4691 8.60156C21.1708 8.80043 21.0134 9.05729 20.9968 9.37216H19.7638C19.7771 8.96117 19.9031 8.59825 20.1417 8.28338C20.3803 7.9652 20.7051 7.71662 21.1161 7.53764C21.5271 7.35535 21.9978 7.2642 22.5281 7.2642C23.065 7.2642 23.5307 7.35866 23.9251 7.54758C24.3228 7.73319 24.6294 7.98674 24.8448 8.30824C25.0636 8.62642 25.1729 8.98769 25.1729 9.39205C25.1729 9.82292 25.052 10.1709 24.81 10.4361C24.5681 10.7012 24.2648 10.8902 23.9002 11.0028V11.0824C24.1886 11.1023 24.4388 11.1951 24.6509 11.3608C24.8664 11.5232 25.0337 11.737 25.1531 12.0021C25.2724 12.264 25.332 12.554 25.332 12.8722C25.332 13.3362 25.2077 13.7405 24.9592 14.0852C24.7106 14.4266 24.3692 14.6918 23.935 14.8807C23.5008 15.0663 23.0053 15.1591 22.4485 15.1591C21.9083 15.1591 21.4244 15.0713 20.9968 14.8956C20.5692 14.7166 20.2295 14.4697 19.9776 14.1548C19.729 13.8366 19.5981 13.4688 19.5849 13.0511ZM26.1648 17.1875V13.9062H26.8011C26.9569 13.7438 27.0911 13.5682 27.2038 13.3793C27.3165 13.1903 27.4143 12.9666 27.4972 12.7081C27.5833 12.4463 27.6563 12.1281 27.7159 11.7536C27.7756 11.3757 27.8286 10.92 27.875 10.3864L28.1335 7.36364H32.9858V13.9062H34.1591V17.1875H32.9858V15H27.3381V17.1875H26.1648ZM28.1335 13.9062H31.8125V8.45739H29.2273L29.0284 10.3864C28.9455 11.1851 28.8428 11.8828 28.7202 12.4794C28.5975 13.076 28.402 13.5516 28.1335 13.9062ZM37.9636 15.179C37.4797 15.179 37.0405 15.0878 36.6461 14.9055C36.2517 14.7199 35.9385 14.4531 35.7065 14.1051C35.4745 13.7538 35.3585 13.3295 35.3585 12.8324C35.3585 12.3949 35.4447 12.0402 35.617 11.7685C35.7894 11.4934 36.0197 11.2779 36.3081 11.1222C36.5964 10.9664 36.9146 10.8504 37.2626 10.7741C37.6139 10.6946 37.9669 10.6316 38.3216 10.5852C38.7856 10.5256 39.1618 10.4808 39.4501 10.451C39.7418 10.4179 39.9539 10.3632 40.0865 10.2869C40.2224 10.2107 40.2903 10.0781 40.2903 9.8892V9.84943C40.2903 9.3589 40.1561 8.97775 39.8876 8.70597C39.6225 8.43419 39.2198 8.2983 38.6795 8.2983C38.1194 8.2983 37.6802 8.42093 37.362 8.66619C37.0439 8.91146 36.8201 9.1733 36.6909 9.4517L35.5772 9.05398C35.7761 8.58996 36.0413 8.22869 36.3727 7.97017C36.7074 7.70833 37.072 7.52604 37.4664 7.4233C37.8642 7.31723 38.2553 7.2642 38.6397 7.2642C38.885 7.2642 39.1667 7.29403 39.4849 7.35369C39.8064 7.41004 40.1163 7.5277 40.4146 7.70668C40.7162 7.88565 40.9664 8.15578 41.1653 8.51705C41.3642 8.87831 41.4636 9.36222 41.4636 9.96875V15H40.2903V13.9659H40.2306C40.1511 14.1316 40.0185 14.3089 39.8329 14.4979C39.6473 14.6868 39.4004 14.8475 39.0922 14.9801C38.7839 15.1127 38.4077 15.179 37.9636 15.179ZM38.1426 14.125C38.6066 14.125 38.9977 14.0339 39.3159 13.8516C39.6374 13.6693 39.8793 13.4339 40.0417 13.1456C40.2074 12.8572 40.2903 12.554 40.2903 12.2358V11.1619C40.2406 11.2216 40.1312 11.2763 39.9622 11.326C39.7965 11.3724 39.6042 11.4138 39.3855 11.4503C39.17 11.4834 38.9596 11.5133 38.7541 11.5398C38.5519 11.563 38.3878 11.5829 38.2619 11.5994C37.957 11.6392 37.6719 11.7038 37.4068 11.7933C37.1449 11.8795 36.9328 12.0104 36.7704 12.1861C36.6113 12.3584 36.5318 12.5937 36.5318 12.892C36.5318 13.2997 36.6826 13.608 36.9842 13.8168C37.2891 14.0223 37.6752 14.125 38.1426 14.125ZM48.7159 10.6449V11.7386H44.5V10.6449H48.7159ZM44.7784 7.36364V15H43.6051V7.36364H44.7784ZM49.6108 7.36364V15H48.4375V7.36364H49.6108ZM52.9268 13.2699L56.6058 7.36364H57.9581V15H56.7848V9.09375L53.1257 15H51.7536V7.36364H52.9268V13.2699ZM63.3088 15.1591C62.573 15.1591 61.9383 14.9967 61.4047 14.6719C60.8743 14.3438 60.465 13.8864 60.1767 13.2997C59.8916 12.7098 59.7491 12.0237 59.7491 11.2415C59.7491 10.4593 59.8916 9.76989 60.1767 9.1733C60.465 8.57339 60.8661 8.10606 61.3798 7.77131C61.8968 7.43324 62.5001 7.2642 63.1895 7.2642C63.5872 7.2642 63.9799 7.33049 64.3677 7.46307C64.7555 7.59564 65.1085 7.81108 65.4267 8.10938C65.7449 8.40436 65.9984 8.79545 66.1873 9.28267C66.3762 9.76989 66.4707 10.3698 66.4707 11.0824V11.5795H60.5843V10.5653H65.2775C65.2775 10.1345 65.1913 9.75 65.019 9.41193C64.85 9.07386 64.608 8.80705 64.2931 8.61151C63.9816 8.41596 63.6137 8.31818 63.1895 8.31818C62.7221 8.31818 62.3178 8.43419 61.9764 8.66619C61.6383 8.89489 61.3781 9.19318 61.1958 9.56108C61.0136 9.92898 60.9224 10.3234 60.9224 10.7443V11.4205C60.9224 11.9972 61.0218 12.486 61.2207 12.8871C61.4229 13.2848 61.7029 13.5881 62.0609 13.7969C62.4189 14.0024 62.8348 14.1051 63.3088 14.1051C63.617 14.1051 63.8954 14.062 64.144 13.9759C64.3959 13.8864 64.613 13.7538 64.7953 13.5781C64.9776 13.3991 65.1184 13.1771 65.2179 12.9119L66.3514 13.2301C66.2321 13.6146 66.0315 13.9527 65.7498 14.2443C65.4681 14.5327 65.1201 14.758 64.7058 14.9205C64.2915 15.0795 63.8258 15.1591 63.3088 15.1591ZM75.2953 15.1591C74.5794 15.1591 73.9629 14.9901 73.4458 14.652C72.9288 14.3139 72.5311 13.8482 72.2527 13.255C71.9743 12.6617 71.835 11.9839 71.835 11.2216C71.835 10.446 71.9776 9.7616 72.2626 9.16832C72.551 8.57173 72.952 8.10606 73.4657 7.77131C73.9828 7.43324 74.586 7.2642 75.2754 7.2642C75.8123 7.2642 76.2962 7.36364 76.7271 7.5625C77.158 7.76136 77.5109 8.03977 77.786 8.39773C78.0611 8.75568 78.2318 9.1733 78.2981 9.65057H77.1248C77.0353 9.30256 76.8365 8.99432 76.5282 8.72585C76.2233 8.45407 75.8123 8.31818 75.2953 8.31818C74.8379 8.31818 74.4368 8.4375 74.0922 8.67614C73.7508 8.91146 73.484 9.24455 73.2917 9.67543C73.1028 10.103 73.0083 10.6051 73.0083 11.1818C73.0083 11.7718 73.1011 12.2855 73.2868 12.723C73.4757 13.1605 73.7408 13.5002 74.0822 13.7422C74.4269 13.9841 74.8313 14.1051 75.2953 14.1051C75.6002 14.1051 75.877 14.0521 76.1255 13.946C76.3741 13.84 76.5846 13.6875 76.7569 13.4886C76.9293 13.2898 77.0519 13.0511 77.1248 12.7727H78.2981C78.2318 13.2235 78.0678 13.6295 77.8059 13.9908C77.5474 14.3487 77.2044 14.6338 76.7768 14.8459C76.3526 15.0547 75.8587 15.1591 75.2953 15.1591ZM82.2605 15.179C81.7766 15.179 81.3374 15.0878 80.943 14.9055C80.5486 14.7199 80.2354 14.4531 80.0034 14.1051C79.7714 13.7538 79.6554 13.3295 79.6554 12.8324C79.6554 12.3949 79.7415 12.0402 79.9139 11.7685C80.0862 11.4934 80.3166 11.2779 80.6049 11.1222C80.8933 10.9664 81.2115 10.8504 81.5595 10.7741C81.9108 10.6946 82.2638 10.6316 82.6184 10.5852C83.0824 10.5256 83.4586 10.4808 83.747 10.451C84.0386 10.4179 84.2508 10.3632 84.3833 10.2869C84.5192 10.2107 84.5872 10.0781 84.5872 9.8892V9.84943C84.5872 9.3589 84.4529 8.97775 84.1845 8.70597C83.9193 8.43419 83.5166 8.2983 82.9764 8.2983C82.4163 8.2983 81.9771 8.42093 81.6589 8.66619C81.3407 8.91146 81.117 9.1733 80.9877 9.4517L79.8741 9.05398C80.073 8.58996 80.3381 8.22869 80.6696 7.97017C81.0043 7.70833 81.3689 7.52604 81.7633 7.4233C82.161 7.31723 82.5521 7.2642 82.9366 7.2642C83.1819 7.2642 83.4636 7.29403 83.7818 7.35369C84.1033 7.41004 84.4132 7.5277 84.7115 7.70668C85.0131 7.88565 85.2633 8.15578 85.4622 8.51705C85.661 8.87831 85.7605 9.36222 85.7605 9.96875V15H84.5872V13.9659H84.5275C84.448 14.1316 84.3154 14.3089 84.1298 14.4979C83.9442 14.6868 83.6973 14.8475 83.389 14.9801C83.0808 15.1127 82.7046 15.179 82.2605 15.179ZM82.4395 14.125C82.9035 14.125 83.2946 14.0339 83.6127 13.8516C83.9342 13.6693 84.1762 13.4339 84.3386 13.1456C84.5043 12.8572 84.5872 12.554 84.5872 12.2358V11.1619C84.5375 11.2216 84.4281 11.2763 84.2591 11.326C84.0933 11.3724 83.9011 11.4138 83.6824 11.4503C83.4669 11.4834 83.2565 11.5133 83.051 11.5398C82.8488 11.563 82.6847 11.5829 82.5588 11.5994C82.2538 11.6392 81.9688 11.7038 81.7037 11.7933C81.4418 11.8795 81.2297 12.0104 81.0673 12.1861C80.9082 12.3584 80.8287 12.5937 80.8287 12.892C80.8287 13.2997 80.9795 13.608 81.2811 13.8168C81.586 14.0223 81.9721 14.125 82.4395 14.125ZM89.0753 13.2699L92.7543 7.36364H94.1065V15H92.9332V9.09375L89.2741 15H87.902V7.36364H89.0753V13.2699ZM91.9787 4.81818H93.0724C93.0724 5.35511 92.8868 5.79427 92.5156 6.13565C92.1444 6.47704 91.6406 6.64773 91.0043 6.64773C90.3778 6.64773 89.879 6.47704 89.5078 6.13565C89.1399 5.79427 88.956 5.35511 88.956 4.81818H90.0497C90.0497 5.0767 90.121 5.30374 90.2635 5.49929C90.4093 5.69484 90.6563 5.79261 91.0043 5.79261C91.3523 5.79261 91.6009 5.69484 91.75 5.49929C91.9025 5.30374 91.9787 5.0767 91.9787 4.81818ZM95.2164 8.45739V7.36364H101.421V8.45739H98.9153V15H97.742V8.45739H95.2164ZM104.983 15.179C104.499 15.179 104.06 15.0878 103.666 14.9055C103.271 14.7199 102.958 14.4531 102.726 14.1051C102.494 13.7538 102.378 13.3295 102.378 12.8324C102.378 12.3949 102.464 12.0402 102.637 11.7685C102.809 11.4934 103.039 11.2779 103.328 11.1222C103.616 10.9664 103.934 10.8504 104.282 10.7741C104.633 10.6946 104.986 10.6316 105.341 10.5852C105.805 10.5256 106.181 10.4808 106.47 10.451C106.761 10.4179 106.973 10.3632 107.106 10.2869C107.242 10.2107 107.31 10.0781 107.31 9.8892V9.84943C107.31 9.3589 107.176 8.97775 106.907 8.70597C106.642 8.43419 106.239 8.2983 105.699 8.2983C105.139 8.2983 104.7 8.42093 104.382 8.66619C104.063 8.91146 103.84 9.1733 103.71 9.4517L102.597 9.05398C102.796 8.58996 103.061 8.22869 103.392 7.97017C103.727 7.70833 104.092 7.52604 104.486 7.4233C104.884 7.31723 105.275 7.2642 105.659 7.2642C105.905 7.2642 106.186 7.29403 106.504 7.35369C106.826 7.41004 107.136 7.5277 107.434 7.70668C107.736 7.88565 107.986 8.15578 108.185 8.51705C108.384 8.87831 108.483 9.36222 108.483 9.96875V15H107.31V13.9659H107.25C107.171 14.1316 107.038 14.3089 106.852 14.4979C106.667 14.6868 106.42 14.8475 106.112 14.9801C105.803 15.1127 105.427 15.179 104.983 15.179ZM105.162 14.125C105.626 14.125 106.017 14.0339 106.335 13.8516C106.657 13.6693 106.899 13.4339 107.061 13.1456C107.227 12.8572 107.31 12.554 107.31 12.2358V11.1619C107.26 11.2216 107.151 11.2763 106.982 11.326C106.816 11.3724 106.624 11.4138 106.405 11.4503C106.19 11.4834 105.979 11.5133 105.774 11.5398C105.571 11.563 105.407 11.5829 105.281 11.5994C104.977 11.6392 104.691 11.7038 104.426 11.7933C104.164 11.8795 103.952 12.0104 103.79 12.1861C103.631 12.3584 103.551 12.5937 103.551 12.892C103.551 13.2997 103.702 13.608 104.004 13.8168C104.309 14.0223 104.695 14.125 105.162 14.125Z"
		fill="#BDBDBD" />
	<path
		d="M170.169 7.36364L171.998 10.4858L173.828 7.36364H175.18L172.714 11.1818L175.18 15H173.828L171.998 12.0369L170.169 15H168.816L171.242 11.1818L168.816 7.36364H170.169Z"
		fill="#BDBDBD" />
	<path
		d="M181.676 5.91193V4.81818H189.312V5.91193H186.111V15H184.878V5.91193H181.676ZM192.264 15.179C191.78 15.179 191.341 15.0878 190.947 14.9055C190.552 14.7199 190.239 14.4531 190.007 14.1051C189.775 13.7538 189.659 13.3295 189.659 12.8324C189.659 12.3949 189.745 12.0402 189.918 11.7685C190.09 11.4934 190.32 11.2779 190.609 11.1222C190.897 10.9664 191.215 10.8504 191.563 10.7741C191.915 10.6946 192.268 10.6316 192.622 10.5852C193.086 10.5256 193.463 10.4808 193.751 10.451C194.043 10.4179 194.255 10.3632 194.387 10.2869C194.523 10.2107 194.591 10.0781 194.591 9.8892V9.84943C194.591 9.3589 194.457 8.97775 194.188 8.70597C193.923 8.43419 193.521 8.2983 192.98 8.2983C192.42 8.2983 191.981 8.42093 191.663 8.66619C191.345 8.91146 191.121 9.1733 190.992 9.4517L189.878 9.05398C190.077 8.58996 190.342 8.22869 190.673 7.97017C191.008 7.70833 191.373 7.52604 191.767 7.4233C192.165 7.31723 192.556 7.2642 192.941 7.2642C193.186 7.2642 193.468 7.29403 193.786 7.35369C194.107 7.41004 194.417 7.5277 194.715 7.70668C195.017 7.88565 195.267 8.15578 195.466 8.51705C195.665 8.87831 195.764 9.36222 195.764 9.96875V15H194.591V13.9659H194.531C194.452 14.1316 194.319 14.3089 194.134 14.4979C193.948 14.6868 193.701 14.8475 193.393 14.9801C193.085 15.1127 192.709 15.179 192.264 15.179ZM192.443 14.125C192.907 14.125 193.298 14.0339 193.617 13.8516C193.938 13.6693 194.18 13.4339 194.343 13.1456C194.508 12.8572 194.591 12.554 194.591 12.2358V11.1619C194.541 11.2216 194.432 11.2763 194.263 11.326C194.097 11.3724 193.905 11.4138 193.686 11.4503C193.471 11.4834 193.26 11.5133 193.055 11.5398C192.853 11.563 192.689 11.5829 192.563 11.5994C192.258 11.6392 191.973 11.7038 191.708 11.7933C191.446 11.8795 191.234 12.0104 191.071 12.1861C190.912 12.3584 190.833 12.5937 190.833 12.892C190.833 13.2997 190.983 13.608 191.285 13.8168C191.59 14.0223 191.976 14.125 192.443 14.125ZM200.988 18.0227C200.422 18.0227 199.934 17.9498 199.527 17.804C199.119 17.6615 198.779 17.4725 198.507 17.2372C198.239 17.0052 198.025 16.7566 197.866 16.4915L198.801 15.8352C198.907 15.9744 199.041 16.1335 199.203 16.3125C199.366 16.4948 199.588 16.6522 199.87 16.7848C200.155 16.9207 200.528 16.9886 200.988 16.9886C201.605 16.9886 202.114 16.8395 202.515 16.5412C202.916 16.2429 203.116 15.7756 203.116 15.1392V13.5881H203.017C202.931 13.7273 202.808 13.8996 202.649 14.1051C202.493 14.3073 202.268 14.4879 201.973 14.647C201.681 14.8028 201.287 14.8807 200.789 14.8807C200.173 14.8807 199.619 14.7348 199.129 14.4432C198.642 14.1515 198.256 13.7273 197.971 13.1705C197.689 12.6136 197.548 11.9375 197.548 11.142C197.548 10.3598 197.685 9.67874 197.961 9.09872C198.236 8.51539 198.618 8.06463 199.109 7.74645C199.6 7.42495 200.166 7.2642 200.809 7.2642C201.306 7.2642 201.701 7.34706 201.993 7.51278C202.288 7.67519 202.513 7.8608 202.669 8.0696C202.828 8.27509 202.95 8.44413 203.037 8.5767H203.156V7.36364H204.289V15.2188C204.289 15.875 204.14 16.4086 203.842 16.8196C203.547 17.2339 203.149 17.5372 202.649 17.7294C202.152 17.925 201.598 18.0227 200.988 18.0227ZM200.949 13.8267C201.419 13.8267 201.817 13.719 202.142 13.5036C202.467 13.2881 202.713 12.9782 202.882 12.5739C203.051 12.1695 203.136 11.6856 203.136 11.1222C203.136 10.572 203.053 10.0864 202.887 9.66548C202.722 9.24455 202.476 8.91477 202.152 8.67614C201.827 8.4375 201.426 8.31818 200.949 8.31818C200.451 8.31818 200.037 8.44413 199.706 8.69602C199.377 8.94792 199.131 9.28598 198.965 9.71023C198.802 10.1345 198.721 10.6051 198.721 11.1222C198.721 11.6525 198.804 12.1214 198.97 12.5291C199.139 12.9335 199.387 13.2517 199.716 13.4837C200.047 13.7124 200.458 13.8267 200.949 13.8267ZM206.437 15V7.36364H207.61V15H206.437ZM207.034 6.09091C206.805 6.09091 206.608 6.01302 206.442 5.85724C206.28 5.70147 206.199 5.5142 206.199 5.29545C206.199 5.0767 206.28 4.88944 206.442 4.73366C206.608 4.57789 206.805 4.5 207.034 4.5C207.262 4.5 207.458 4.57789 207.62 4.73366C207.786 4.88944 207.869 5.0767 207.869 5.29545C207.869 5.5142 207.786 5.70147 207.62 5.85724C207.458 6.01302 207.262 6.09091 207.034 6.09091ZM209.759 15V7.36364H210.893V8.51705H210.972C211.112 8.1392 211.364 7.83262 211.728 7.5973C212.093 7.36198 212.504 7.24432 212.961 7.24432C213.047 7.24432 213.155 7.24597 213.284 7.24929C213.414 7.2526 213.511 7.25758 213.578 7.2642V8.45739C213.538 8.44744 213.447 8.43253 213.304 8.41264C213.165 8.38944 213.017 8.37784 212.862 8.37784C212.49 8.37784 212.159 8.45573 211.867 8.61151C211.579 8.76397 211.35 8.97609 211.181 9.24787C211.016 9.51634 210.933 9.82292 210.933 10.1676V15H209.759ZM217.838 15.1591C217.149 15.1591 216.544 14.995 216.024 14.6669C215.507 14.3388 215.102 13.8797 214.811 13.2898C214.522 12.6998 214.378 12.0104 214.378 11.2216C214.378 10.4261 214.522 9.73177 214.811 9.13849C215.102 8.54522 215.507 8.08452 216.024 7.75639C216.544 7.42827 217.149 7.2642 217.838 7.2642C218.528 7.2642 219.131 7.42827 219.648 7.75639C220.168 8.08452 220.573 8.54522 220.861 9.13849C221.153 9.73177 221.298 10.4261 221.298 11.2216C221.298 12.0104 221.153 12.6998 220.861 13.2898C220.573 13.8797 220.168 14.3388 219.648 14.6669C219.131 14.995 218.528 15.1591 217.838 15.1591ZM217.838 14.1051C218.362 14.1051 218.793 13.9709 219.131 13.7024C219.469 13.4339 219.719 13.081 219.882 12.6435C220.044 12.206 220.125 11.732 220.125 11.2216C220.125 10.7112 220.044 10.2356 219.882 9.79474C219.719 9.35393 219.469 8.99763 219.131 8.72585C218.793 8.45407 218.362 8.31818 217.838 8.31818C217.315 8.31818 216.884 8.45407 216.546 8.72585C216.208 8.99763 215.957 9.35393 215.795 9.79474C215.633 10.2356 215.551 10.7112 215.551 11.2216C215.551 11.732 215.633 12.206 215.795 12.6435C215.957 13.081 216.208 13.4339 216.546 13.7024C216.884 13.9709 217.315 14.1051 217.838 14.1051ZM229.06 7.36364L226.237 15H225.043L222.219 7.36364H223.492L225.6 13.4489H225.68L227.788 7.36364H229.06Z"
		fill="#BDBDBD" />
	<path
		d="M119.634 16L117.179 6.18182H120.707L121.832 12.1648H121.909L123.162 6.18182H126.588L127.892 12.1136H127.969L129.043 6.18182H132.571L130.116 16H126.307L124.926 10.733H124.824L123.443 16H119.634ZM137.523 16.179C136.466 16.179 135.522 16.0149 134.691 15.6868C133.865 15.3587 133.213 14.9134 132.735 14.3509C132.262 13.7884 132.026 13.1534 132.026 12.446C132.026 11.9048 132.16 11.4105 132.429 10.9631C132.701 10.5156 133.068 10.1449 133.528 9.85085C133.988 9.55256 134.502 9.3608 135.069 9.27557V9.1733C134.323 9.04545 133.709 8.7152 133.228 8.18253C132.75 7.6456 132.512 7.01278 132.512 6.28409C132.512 5.59801 132.729 4.98864 133.164 4.45597C133.598 3.91903 134.193 3.49716 134.947 3.19034C135.701 2.88352 136.56 2.73011 137.523 2.73011C138.486 2.73011 139.345 2.88565 140.099 3.19673C140.853 3.50355 141.448 3.92543 141.882 4.46236C142.317 4.99503 142.534 5.60227 142.534 6.28409C142.534 7.01705 142.292 7.64986 141.806 8.18253C141.32 8.7152 140.711 9.04545 139.978 9.1733V9.27557C140.54 9.3608 141.051 9.55256 141.512 9.85085C141.972 10.1449 142.338 10.5156 142.611 10.9631C142.884 11.4105 143.02 11.9048 143.02 12.446C143.02 13.1534 142.782 13.7884 142.304 14.3509C141.831 14.9134 141.179 15.3587 140.348 15.6868C139.522 16.0149 138.58 16.179 137.523 16.179ZM137.523 13.7244C137.86 13.7244 138.158 13.6562 138.418 13.5199C138.678 13.3835 138.882 13.196 139.032 12.9574C139.185 12.7145 139.262 12.4418 139.262 12.1392C139.262 11.8366 139.185 11.5682 139.032 11.3338C138.882 11.0994 138.678 10.9162 138.418 10.7841C138.158 10.6477 137.86 10.5795 137.523 10.5795C137.191 10.5795 136.892 10.6477 136.628 10.7841C136.368 10.9162 136.162 11.0994 136.008 11.3338C135.859 11.5682 135.784 11.8366 135.784 12.1392C135.784 12.4418 135.859 12.7124 136.008 12.951C136.162 13.1896 136.368 13.3793 136.628 13.5199C136.892 13.6562 137.191 13.7244 137.523 13.7244ZM137.523 8.125C137.821 8.125 138.086 8.06321 138.316 7.93963C138.546 7.81605 138.727 7.6456 138.859 7.42827C138.991 7.21094 139.057 6.96591 139.057 6.69318C139.057 6.42045 138.991 6.17969 138.859 5.97088C138.727 5.75781 138.546 5.59162 138.316 5.4723C138.086 5.34872 137.821 5.28693 137.523 5.28693C137.229 5.28693 136.965 5.34872 136.73 5.4723C136.5 5.59162 136.319 5.75781 136.187 5.97088C136.055 6.17969 135.989 6.42045 135.989 6.69318C135.989 6.96591 136.055 7.21094 136.187 7.42827C136.319 7.64133 136.5 7.81179 136.73 7.93963C136.965 8.06321 137.229 8.125 137.523 8.125ZM152.908 6.18182L149.609 16H145.518L142.22 6.18182H145.927L147.513 12.6761H147.615L149.2 6.18182H152.908ZM154.439 19.6818C154.034 19.6818 153.648 19.6499 153.282 19.5859C152.915 19.5263 152.594 19.4432 152.317 19.3366L153.084 16.831C153.373 16.9332 153.638 16.9993 153.876 17.0291C154.119 17.0589 154.326 17.0419 154.496 16.978C154.671 16.9141 154.797 16.7926 154.873 16.6136L154.95 16.4347L151.498 6.18182H155.18L156.765 12.983H156.868L158.479 6.18182H162.186L158.606 16.8182C158.427 17.3594 158.167 17.8452 157.827 18.2756C157.49 18.7102 157.047 19.0533 156.497 19.3047C155.947 19.5561 155.261 19.6818 154.439 19.6818Z"
		fill="#0066FF" />
	<path
		d="M119.634 16L117.179 6.18182H120.707L121.832 12.1648H121.909L123.162 6.18182H126.588L127.892 12.1136H127.969L129.043 6.18182H132.571L130.116 16H126.307L124.926 10.733H124.824L123.443 16H119.634ZM137.523 16.179C136.466 16.179 135.522 16.0149 134.691 15.6868C133.865 15.3587 133.213 14.9134 132.735 14.3509C132.262 13.7884 132.026 13.1534 132.026 12.446C132.026 11.9048 132.16 11.4105 132.429 10.9631C132.701 10.5156 133.068 10.1449 133.528 9.85085C133.988 9.55256 134.502 9.3608 135.069 9.27557V9.1733C134.323 9.04545 133.709 8.7152 133.228 8.18253C132.75 7.6456 132.512 7.01278 132.512 6.28409C132.512 5.59801 132.729 4.98864 133.164 4.45597C133.598 3.91903 134.193 3.49716 134.947 3.19034C135.701 2.88352 136.56 2.73011 137.523 2.73011C138.486 2.73011 139.345 2.88565 140.099 3.19673C140.853 3.50355 141.448 3.92543 141.882 4.46236C142.317 4.99503 142.534 5.60227 142.534 6.28409C142.534 7.01705 142.292 7.64986 141.806 8.18253C141.32 8.7152 140.711 9.04545 139.978 9.1733V9.27557C140.54 9.3608 141.051 9.55256 141.512 9.85085C141.972 10.1449 142.338 10.5156 142.611 10.9631C142.884 11.4105 143.02 11.9048 143.02 12.446C143.02 13.1534 142.782 13.7884 142.304 14.3509C141.831 14.9134 141.179 15.3587 140.348 15.6868C139.522 16.0149 138.58 16.179 137.523 16.179ZM137.523 13.7244C137.86 13.7244 138.158 13.6562 138.418 13.5199C138.678 13.3835 138.882 13.196 139.032 12.9574C139.185 12.7145 139.262 12.4418 139.262 12.1392C139.262 11.8366 139.185 11.5682 139.032 11.3338C138.882 11.0994 138.678 10.9162 138.418 10.7841C138.158 10.6477 137.86 10.5795 137.523 10.5795C137.191 10.5795 136.892 10.6477 136.628 10.7841C136.368 10.9162 136.162 11.0994 136.008 11.3338C135.859 11.5682 135.784 11.8366 135.784 12.1392C135.784 12.4418 135.859 12.7124 136.008 12.951C136.162 13.1896 136.368 13.3793 136.628 13.5199C136.892 13.6562 137.191 13.7244 137.523 13.7244ZM137.523 8.125C137.821 8.125 138.086 8.06321 138.316 7.93963C138.546 7.81605 138.727 7.6456 138.859 7.42827C138.991 7.21094 139.057 6.96591 139.057 6.69318C139.057 6.42045 138.991 6.17969 138.859 5.97088C138.727 5.75781 138.546 5.59162 138.316 5.4723C138.086 5.34872 137.821 5.28693 137.523 5.28693C137.229 5.28693 136.965 5.34872 136.73 5.4723C136.5 5.59162 136.319 5.75781 136.187 5.97088C136.055 6.17969 135.989 6.42045 135.989 6.69318C135.989 6.96591 136.055 7.21094 136.187 7.42827C136.319 7.64133 136.5 7.81179 136.73 7.93963C136.965 8.06321 137.229 8.125 137.523 8.125ZM152.908 6.18182L149.609 16H145.518L142.22 6.18182H145.927L147.513 12.6761H147.615L149.2 6.18182H152.908ZM154.439 19.6818C154.034 19.6818 153.648 19.6499 153.282 19.5859C152.915 19.5263 152.594 19.4432 152.317 19.3366L153.084 16.831C153.373 16.9332 153.638 16.9993 153.876 17.0291C154.119 17.0589 154.326 17.0419 154.496 16.978C154.671 16.9141 154.797 16.7926 154.873 16.6136L154.95 16.4347L151.498 6.18182H155.18L156.765 12.983H156.868L158.479 6.18182H162.186L158.606 16.8182C158.427 17.3594 158.167 17.8452 157.827 18.2756C157.49 18.7102 157.047 19.0533 156.497 19.3047C155.947 19.5561 155.261 19.6818 154.439 19.6818Z"
		fill="url(#paint0_radial_205_224)" fill-opacity="0.3" />
	<path
		d="M119.634 16L117.179 6.18182H120.707L121.832 12.1648H121.909L123.162 6.18182H126.588L127.892 12.1136H127.969L129.043 6.18182H132.571L130.116 16H126.307L124.926 10.733H124.824L123.443 16H119.634ZM137.523 16.179C136.466 16.179 135.522 16.0149 134.691 15.6868C133.865 15.3587 133.213 14.9134 132.735 14.3509C132.262 13.7884 132.026 13.1534 132.026 12.446C132.026 11.9048 132.16 11.4105 132.429 10.9631C132.701 10.5156 133.068 10.1449 133.528 9.85085C133.988 9.55256 134.502 9.3608 135.069 9.27557V9.1733C134.323 9.04545 133.709 8.7152 133.228 8.18253C132.75 7.6456 132.512 7.01278 132.512 6.28409C132.512 5.59801 132.729 4.98864 133.164 4.45597C133.598 3.91903 134.193 3.49716 134.947 3.19034C135.701 2.88352 136.56 2.73011 137.523 2.73011C138.486 2.73011 139.345 2.88565 140.099 3.19673C140.853 3.50355 141.448 3.92543 141.882 4.46236C142.317 4.99503 142.534 5.60227 142.534 6.28409C142.534 7.01705 142.292 7.64986 141.806 8.18253C141.32 8.7152 140.711 9.04545 139.978 9.1733V9.27557C140.54 9.3608 141.051 9.55256 141.512 9.85085C141.972 10.1449 142.338 10.5156 142.611 10.9631C142.884 11.4105 143.02 11.9048 143.02 12.446C143.02 13.1534 142.782 13.7884 142.304 14.3509C141.831 14.9134 141.179 15.3587 140.348 15.6868C139.522 16.0149 138.58 16.179 137.523 16.179ZM137.523 13.7244C137.86 13.7244 138.158 13.6562 138.418 13.5199C138.678 13.3835 138.882 13.196 139.032 12.9574C139.185 12.7145 139.262 12.4418 139.262 12.1392C139.262 11.8366 139.185 11.5682 139.032 11.3338C138.882 11.0994 138.678 10.9162 138.418 10.7841C138.158 10.6477 137.86 10.5795 137.523 10.5795C137.191 10.5795 136.892 10.6477 136.628 10.7841C136.368 10.9162 136.162 11.0994 136.008 11.3338C135.859 11.5682 135.784 11.8366 135.784 12.1392C135.784 12.4418 135.859 12.7124 136.008 12.951C136.162 13.1896 136.368 13.3793 136.628 13.5199C136.892 13.6562 137.191 13.7244 137.523 13.7244ZM137.523 8.125C137.821 8.125 138.086 8.06321 138.316 7.93963C138.546 7.81605 138.727 7.6456 138.859 7.42827C138.991 7.21094 139.057 6.96591 139.057 6.69318C139.057 6.42045 138.991 6.17969 138.859 5.97088C138.727 5.75781 138.546 5.59162 138.316 5.4723C138.086 5.34872 137.821 5.28693 137.523 5.28693C137.229 5.28693 136.965 5.34872 136.73 5.4723C136.5 5.59162 136.319 5.75781 136.187 5.97088C136.055 6.17969 135.989 6.42045 135.989 6.69318C135.989 6.96591 136.055 7.21094 136.187 7.42827C136.319 7.64133 136.5 7.81179 136.73 7.93963C136.965 8.06321 137.229 8.125 137.523 8.125ZM152.908 6.18182L149.609 16H145.518L142.22 6.18182H145.927L147.513 12.6761H147.615L149.2 6.18182H152.908ZM154.439 19.6818C154.034 19.6818 153.648 19.6499 153.282 19.5859C152.915 19.5263 152.594 19.4432 152.317 19.3366L153.084 16.831C153.373 16.9332 153.638 16.9993 153.876 17.0291C154.119 17.0589 154.326 17.0419 154.496 16.978C154.671 16.9141 154.797 16.7926 154.873 16.6136L154.95 16.4347L151.498 6.18182H155.18L156.765 12.983H156.868L158.479 6.18182H162.186L158.606 16.8182C158.427 17.3594 158.167 17.8452 157.827 18.2756C157.49 18.7102 157.047 19.0533 156.497 19.3047C155.947 19.5561 155.261 19.6818 154.439 19.6818Z"
		fill="url(#paint1_radial_205_224)" />
	<defs>
		<radialGradient id="paint0_radial_205_224" cx="0" cy="0" r="1" gradientUnits="userSpaceOnUse"
			gradientTransform="translate(151.233 23.5) rotate(-137.932) scale(20.8952 17.0171)">
			<stop />
			<stop offset="1" stop-opacity="0" />
		</radialGradient>
		<radialGradient id="paint1_radial_205_224" cx="0" cy="0" r="1" gradientUnits="userSpaceOnUse"
			gradientTransform="translate(145.819 2.43103) rotate(96.1376) scale(14.5142 11.36)">
			<stop stop-color="#52ACFF" />
			<stop offset="1" stop-color="#0075FF" stop-opacity="0" />
		</radialGradient>
	</defs>
</svg>