<svg width="120" height="120" viewBox="0 0 70 70" xmlns="http://www.w3.org/2000/svg">
	<rect width="70" height="70" rx="35" fill="white" />
	<path
		d="M60.1322 46.1665C59.5143 45.7933 59.1929 46.5272 58.13 46.5023C57.5615 46.4899 56.9436 46.2038 56.4121 45.9674C56.4121 45.8679 56.4121 45.7684 56.4245 45.6565C56.4615 44.4375 56.4986 43.2806 55.3121 42.6587C53.965 41.9497 50.6651 41.1536 48.7247 40.9297C47.6618 40.8053 45.0416 40.5317 42.9406 40.3202C45.9191 40.1834 52.2718 39.8848 52.8279 39.8848C53.5571 39.8848 53.8167 39.2878 53.8167 38.8897V38.8648C53.792 38.6534 53.3841 33.7525 53.3223 33.2549C53.2358 32.5459 52.6673 32.4837 52.1729 32.4215L52.1111 32.4091C51.6662 32.3593 46.8584 31.9115 45.7708 31.812L45.4001 26.3389L45.19 26.314C44.0158 26.1896 42.4091 26.0279 41.5563 25.9409L41.2103 25.6921L34.6599 25.9409V26.314L34.9442 27.1225L35.5251 27.1599C35.5251 27.1599 35.5003 27.7694 35.4633 28.7023C34.0543 26.115 31.5948 22.0724 31.496 21.9107C31.3847 21.7241 29.4814 18.4278 25.2422 19.087C21.2872 19.6965 16.393 21.3385 15.8121 21.5251L13.3774 21.1643L12.5122 20.3931H10.4482L10.4235 20.6295C10.3988 20.8534 9.8797 26.003 11.7336 28.5033C13.2661 30.5681 17.7772 35.2576 19.2851 36.8124H18.5064C18.3458 36.7751 18.1727 36.9119 18.0615 37.4095C17.8019 38.5912 17.5424 39.1883 16.9121 39.6609C16.5784 39.9097 15.0953 41.987 15.9728 44.6614C16.084 44.9972 16.2076 45.3082 16.3312 45.5943C15.7874 45.3828 15.2312 45.2709 14.6751 45.4077C14.5144 45.445 14.3661 45.5196 14.2549 45.6316C14.1683 45.7187 14.1065 45.8306 14.0695 45.955C13.9706 46.2038 13.9212 46.4899 13.9335 46.7635C13.847 46.8506 13.6122 46.863 13.3279 46.8257C12.3886 46.2287 11.3381 45.8182 10.2505 45.6067C10.1269 45.5818 10.0033 45.557 9.8797 45.5818C9.76846 45.6067 9.66959 45.6689 9.57072 45.7435C8.8168 46.2287 8.03817 47.2362 7.22247 47.684C7.14831 47.7213 7.07416 47.7586 7 47.7835V51.4032H63.2097V47.3482C63.222 47.3482 60.9603 46.6765 60.1322 46.1665ZM44.1889 33.9764C44.7821 33.4415 44.745 32.0732 44.745 31.501C44.745 30.991 44.6832 27.5455 44.6709 26.7743C44.7697 26.7867 44.8563 26.7867 44.9181 26.7991L45.2888 32.2722L45.4989 32.2971C45.5607 32.2971 51.5549 32.8693 52.0493 32.9191H52.1111C52.6673 32.9813 52.7785 33.0186 52.8279 33.3171C52.8897 33.7898 53.2976 38.6161 53.3223 38.8897C53.3223 38.9892 53.2852 39.3748 52.8279 39.3748C52.1358 39.3748 42.9653 39.8102 41.5563 39.8724C41.5316 39.0763 41.5193 37.5214 41.5193 35.7302C42.3226 35.4815 43.6574 34.4739 44.1889 33.9764ZM36.0689 29.9586C36.0689 29.9337 36.0689 29.9213 36.0689 29.8964C36.1059 29.0008 36.1554 28.2047 36.2048 27.6077L40.1103 27.5206C40.1103 27.5206 40.0238 29.6103 39.962 31.812L35.9947 31.9115C36.0194 31.2523 36.0441 30.593 36.0689 29.9586ZM35.9947 32.3593L39.962 32.2474C39.9126 34.0012 39.8755 35.7551 39.9126 36.5139L35.9205 36.601C35.9205 36.6134 35.9329 34.5859 35.9947 32.3593ZM15.0706 29.0133C13.0066 27.2843 12.6976 26.0652 12.1785 23.2167C12.1785 23.2167 11.956 21.7614 11.8695 20.9031H12.3145L13.1549 21.6494L15.8492 22.0475L15.911 22.0226C15.9604 22.0102 21.1513 20.219 25.304 19.5846C29.296 18.9751 30.9892 22.035 31.051 22.1594L31.0634 22.1719C31.1005 22.2216 34.1285 27.2096 35.4138 29.685C35.3149 32.1976 35.1914 35.9168 35.2284 37.6334L35.1914 38.9146C35.1914 38.9146 32.2622 30.7796 30.6432 27.3962C29.0241 24.0253 23.9321 24.3487 23.9321 24.3487L16.5289 24.8338C16.5289 24.8338 16.6896 24.8338 16.9739 24.8338L23.7344 33.8147L17.9255 24.8462C19.3592 24.8711 21.7075 24.9457 24.0433 25.1572C24.6489 25.207 25.2298 25.4433 25.7984 25.7916L26.3545 27.5455C26.1444 27.7445 26.1197 28.0803 26.1568 28.2794C26.1691 28.4038 26.9354 30.4562 27.7264 32.5583L26.8736 34.0261V35.0212H25.0568V35.1332C25.2051 35.1829 25.3534 35.3695 25.4029 35.7676C25.4276 35.9541 25.477 36.3398 25.5388 36.8124H24.3029C22.4737 35.2576 16.8009 30.4562 15.0706 29.0133ZM31.0634 32.5335H29.2095C28.4803 30.4064 27.7264 28.1799 27.6646 27.956C27.5657 27.6325 27.3556 27.4211 27.059 27.3713L26.6882 26.4384C29.1971 28.553 31.0634 32.5335 31.0634 32.5335ZM55.9301 45.644C55.9301 45.6813 55.9301 45.7187 55.9301 45.756C55.6829 45.6565 55.4605 45.6067 55.2751 45.6316C54.8425 45.6938 54.5953 46.0794 53.7549 46.2535C53.9526 45.9052 54.0268 45.3455 53.965 44.5618C53.829 42.7333 51.419 42.4099 51.419 42.4099L48.7 41.9621C48.8236 41.9994 50.7269 42.5965 50.7022 44.5867C50.6898 45.2833 50.5909 45.7809 50.4797 46.1291C49.528 45.9301 49.2438 45.6938 48.3416 45.644C48.4651 44.9599 48.4775 44.226 48.2921 43.6414C47.9461 42.6089 47.6618 42.298 42.199 41.4024C37.3789 40.6187 30.0128 40.9919 28.3196 41.0914C28.7398 42.808 29.6544 46.5769 29.7409 46.8879C29.8398 47.2362 31.051 47.4725 31.3847 47.5347C31.4342 47.5472 31.4712 47.5472 31.4712 47.5472C30.8162 47.6342 30.223 47.684 29.6915 47.7089C29.5308 47.7213 29.3702 47.7213 29.2219 47.7213C29.1848 47.7213 29.1601 47.7213 29.123 47.7213C28.4927 47.7213 27.9489 47.6716 27.4792 47.5596C26.0085 47.2113 25.2793 46.2784 24.7602 44.6614C24.1917 42.895 24.6366 41.3899 25.0939 40.5068C25.3411 40.0465 25.5882 39.748 25.6995 39.6609C25.7984 39.5987 25.8725 39.5241 25.959 39.4495C26.1691 39.2504 26.3298 39.0265 26.4534 38.7405C26.6141 38.3922 26.7377 37.9692 26.8612 37.4095C26.9478 36.999 27.0837 36.8373 27.2197 36.8124C27.2444 36.8124 27.2691 36.8124 27.2938 36.8124C27.4051 36.8249 27.5286 36.9244 27.6275 37.0363C27.7264 37.1483 27.8129 37.2602 27.8747 37.31C28.0601 37.4841 28.1095 37.8697 28.1342 38.3424C28.1342 38.4419 28.1466 38.5787 28.1466 38.7405C28.1466 39.0514 28.1466 39.4246 28.1466 39.7231C28.1466 40.0341 28.1466 40.258 28.1466 40.258C28.1466 40.258 28.1713 40.3451 28.2084 40.5068H39.9373C40.3081 40.5441 46.8584 41.2158 48.7 41.4272C50.5538 41.6387 53.829 42.4348 55.1144 43.1065C55.9919 43.5792 55.9672 44.4872 55.9301 45.644Z"
		fill="#191919" />
</svg>